<svg xmlns="http://www.w3.org/2000/svg" width="197.829" height="32" viewBox="0 0 197.829 32"><g transform="translate(468.236 94)"><path d="M144.956,386.525l12.008-10.2.233-.239.192-.207.189-.213.182-.216.178-.22.173-.225.167-.229.162-.233.156-.238.151-.242.145-.245.14-.249.134-.253.127-.256.122-.26.115-.263.11-.267.1-.269.1-.273.09-.276.083-.278.077-.281.07-.284.063-.287.055-.29.049-.291.041-.294.034-.3.027-.3.019-.3.011-.3,0-.3,0-.3-.011-.3-.019-.3-.027-.3-.034-.3-.041-.294-.049-.291-.055-.29-.063-.287-.07-.284-.077-.281-.083-.279-.09-.276-.1-.272-.1-.27-.11-.267-.115-.263-.122-.26-.127-.256-.134-.253-.14-.248-.145-.245-.151-.241-.156-.238-.163-.233-.166-.229-.173-.225-.178-.221-.182-.216-.189-.212-.192-.207-.2-.2-.2-.2-.208-.192-.212-.189-.216-.182-.221-.178-.225-.173-.229-.167-.233-.162-.238-.156-.242-.151-.245-.146-.249-.139-.252-.134-.256-.127-.26-.122-.263-.116-.267-.109-.27-.1-.272-.1-.276-.09-.279-.083-.281-.076-.284-.07-.287-.063-.289-.056-.291-.048-.294-.041-.3-.034-.3-.027-.3-.019-.3-.012-.311,0-.528.012-.53.035-.523.059-.517.082-.509.1-.5.126-.492.147-.484.167-.473.188-.463.207-.452.226-.442.245-.429.262-.416.28-.4.3-.391.313-.377.329-.363.345-.347.359-.333.374c-.913.981-1.483.833-2.2,0l-.333-.374-.348-.359-.363-.345-.376-.329-.391-.313-.4-.3-.417-.28-.429-.262-.442-.245-.452-.226-.463-.207-.474-.188-.483-.167-.492-.147-.5-.126-.509-.1-.517-.082-.523-.059-.53-.035-.537-.012-.6.015-.6.045-.59.076-.581.1-.571.133-.56.16-.548.186-.537.212-.523.237-.509.262-.494.284-.479.307-.462.33-.445.35-.429.371-.409.39-.391.41-.371.429-.35.445-.329.462-.307.479-.285.494-.261.509-.238.523-.212.536-.186.549-.16.561-.132.57-.1.581-.075.59-.046.6-.015.6,0,.314.012.3.019.3.027.3.034.3.041.294.049.291.055.29.063.287.07.284.077.281.083.278.09.276.1.273.1.269.11.267.115.263.122.26.127.256.134.253.14.249.145.245.151.242.156.238.163.233.167.229.173.225.178.22.182.216.189.213.192.207.232.237,8.254,7.094a1.953,1.953,0,0,0,2.5-.116l1.97-1.765a1.554,1.554,0,0,0-.153-2.247l-8.466-7.343-.094-.1-.093-.1-.091-.107-.088-.11-.085-.112-.084-.113-.08-.115-.077-.118-.074-.119-.071-.12-.069-.123-.066-.124-.063-.126-.059-.127-.057-.129-.054-.13-.05-.131-.048-.133-.044-.135-.041-.135-.037-.138-.035-.139-.031-.14-.027-.14-.024-.143-.02-.144-.017-.145-.013-.146-.009-.148-.006-.149,0-.122.008-.328.022-.294.038-.289.051-.284.064-.278.078-.273.09-.268.1-.262.117-.256.128-.25.14-.244.152-.236.163-.228.174-.222.185-.212.193-.2.2-.194.212-.184.221-.174.229-.162.236-.152.243-.14.251-.129.255-.116.262-.1.268-.091.274-.077.278-.064.283-.051.289-.037.294-.022.307-.008.258.006.261.018.256.029a10.116,10.116,0,0,1,6.021,3.4c1.483,1.486,3.4,3.472,6.544.221a10.965,10.965,0,0,1,5.537-3.533l.248-.051.252-.04.257-.029.261-.018.287-.006.129,0,.15.005.148.01.146.013.145.017.144.02.142.024.141.027.14.031.139.034.137.037.136.041.134.044.133.047.132.051.13.054.129.056.127.06.126.063.124.066.123.068.121.072.12.074.117.077.115.08.114.083.112.086.109.088.107.091.105.094.1.1.1.1.1.1.1.1.093.105.091.107.088.11.085.112.084.114.08.115.077.117.074.12.071.121.069.123.066.124.063.126.06.127.056.129.054.13.05.132.048.133.044.134.041.136.037.137.034.139.03.14.028.141.024.143.02.144.017.145.013.146.009.148.006.15,0,.15,0,.15-.006.149-.009.148-.013.146-.017.145-.02.144-.024.143-.028.141-.03.139-.034.139-.037.138-.041.136-.044.134-.048.133-.05.132-.054.131-.057.128-.059.127-.063.126-.066.124-.069.122-.071.121-.074.119-.077.118-.081.115-.082.113-.086.112-.088.11-.091.107-.094.1-.093.1-15.425,13.423a1.489,1.489,0,0,0,.5,2.776l3.92-.012c1.519.059,1.846-.581,3.1-1.606Z" transform="translate(-584.92 -450.144)" fill="#be0811" fill-rule="evenodd"/><g transform="translate(0 1.492)"><path d="M123.165,411.756a13.215,13.215,0,0,1,.052,3.209L121.98,428.8a1.718,1.718,0,0,1-1.932,1.677,19.1,19.1,0,0,1-4.177-.346,6.843,6.843,0,0,1-.966-.3c-.165-.065-.339-.146-.51-.2a1.767,1.767,0,0,0-.822.02,23.057,23.057,0,0,0-2.651.756,10.883,10.883,0,0,1-3.349.5,8.672,8.672,0,0,1-6.255-2.2q-.2-.193-.382-.4c-2.749,1.259-7.553,3.007-10.042.95-1.457-1.2-1.573-3.272-1.431-5.017l.58-6.384a5.636,5.636,0,0,0-.459-3.371A2.96,2.96,0,0,0,87,413.415a3.732,3.732,0,0,0-2.866,1.182,5.436,5.436,0,0,0-1.205,3.214l-1.007,11.6a1.2,1.2,0,0,1-1.254,1.091H74.661a1.1,1.1,0,0,1-1.214-1.209l.991-11.423a5.7,5.7,0,0,0-.458-3.365,2.965,2.965,0,0,0-2.582-1.086,3.73,3.73,0,0,0-2.866,1.183,5.439,5.439,0,0,0-1.205,3.213l-1.006,11.594a1.142,1.142,0,0,1-1.189,1.093H58.974a1.123,1.123,0,0,1-1.135-1.191V429.3l1.846-21.275,0-.013a1.465,1.465,0,0,1,1.589-1.319h.019a9.233,9.233,0,0,1,6.8,2.527l.4.352.394-.364A11.1,11.1,0,0,1,72.3,407.05a10.609,10.609,0,0,1,3.926-.752,8.589,8.589,0,0,1,3.749.76,6.328,6.328,0,0,1,2.545,2.273l.381.576.515-.461A12.272,12.272,0,0,1,91.66,406.3c2.045,0,4.271.4,5.715,1.979s1.666,3.831,1.482,5.868q-.424,4.71-.848,9.421c0,.046-.014.283.033.319.124.093.539.036.678.008a4.146,4.146,0,0,0,.626-.185,8,8,0,0,1,.2-1.705,8.989,8.989,0,0,1,.308-1.053,7.9,7.9,0,0,1,2.784-3.695,12.333,12.333,0,0,1,7.576-2.228,9.174,9.174,0,0,1,2.044.243l.009,0a9.222,9.222,0,0,1,2.812,1.221l.186-1.7a2.6,2.6,0,0,0-1.324-2.735,11.315,11.315,0,0,0-4.623-.684c-1.193,0-2.386.028-3.577.1q-.685.041-1.369.09h-.009a1.272,1.272,0,0,1-1.338-1.606l.5-1.716a1.521,1.521,0,0,1,1.517-1.144c1.168-.087,2.333-.205,3.5-.272,1.211-.076,2.424-.119,3.637-.119,2.588,0,7.159.165,9.258,1.751a4.169,4.169,0,0,1,1.358,1.886q.114-1.327.228-2.653v-.008a1.117,1.117,0,0,1,1.209-1.148h3.4q.277-3.1.553-6.2l0-.04.008-.038c.164-.8.6-1.38,1.491-1.336l5.842.009a1.277,1.277,0,0,1,1.047.415,1.522,1.522,0,0,1,.257,1.111v.014l0,.013q-.279,3.024-.558,6.05h4.361a1.141,1.141,0,0,1,.945.38,1.187,1.187,0,0,1,.152,1q-.124,1.376-.246,2.75a1.17,1.17,0,0,1-1.219,1.25H135.8q-.483,4.23-.966,8.465c-.162,1.322-.045,3.169,1.219,3.949a2.866,2.866,0,0,0,2.542.05l1.21-.633a10.866,10.866,0,0,1-.553-4.75,11.807,11.807,0,0,1,1.579-4.985l.005-.008.174-.285a14.267,14.267,0,0,1,3.293-3.59,17.064,17.064,0,0,1,10.908-3.654,13.926,13.926,0,0,1,7.828,2.143,10.294,10.294,0,0,1,3.36,3.582l.342-3.821.039-.1a2.249,2.249,0,0,1,2.248-1.477h4.738a1.794,1.794,0,0,1,1.32.505,1.422,1.422,0,0,1,.285,1.233l-.967,10.823a5.5,5.5,0,0,0,.478,3.332,2.928,2.928,0,0,0,2.564,1.1,3.947,3.947,0,0,0,2.971-1.128,5.41,5.41,0,0,0,1.227-3.247l.976-10.93,0-.011a1.743,1.743,0,0,1,1.611-1.678h5.674l.035,0a1.412,1.412,0,0,1,1.085.592,1.92,1.92,0,0,1,.222,1.275l-1.3,14.94a10.4,10.4,0,0,0,3.506.678,4.051,4.051,0,0,0,2.186-.553,2.143,2.143,0,0,0,1.061-1.644c.111-1.238-1.575-2.669-2.434-3.377-.3-.24-.6-.482-.9-.719l-.013-.011-.014-.011a6.135,6.135,0,0,1-1.609-2.074,4.633,4.633,0,0,1-.383-2.356,6.38,6.38,0,0,1,3.269-5.063,16.063,16.063,0,0,1,8.349-1.911c.7,0,1.392.034,2.085.095.361.031.724.06,1.083.109a1.477,1.477,0,0,1,1.363,1.819l-.274,2.56a1.386,1.386,0,0,1-.55,1.06,2.046,2.046,0,0,1-1.417.255q-.816-.073-1.635-.074a4.2,4.2,0,0,0-2.078.466,1.944,1.944,0,0,0-1.033,1.52,2.044,2.044,0,0,0,.35,1.26,8.671,8.671,0,0,0,1.379,1.478A14.183,14.183,0,0,1,205.5,420.8a5.843,5.843,0,0,1,.55,3.163,6.2,6.2,0,0,1-2.956,4.9,13.952,13.952,0,0,1-7.562,1.808,21.766,21.766,0,0,1-4.2-.5,19.554,19.554,0,0,1-4.091-1.228,28.5,28.5,0,0,0-5.208-1.345,2.977,2.977,0,0,0-1.993.632l-.027.02-.022.02a9.742,9.742,0,0,1-3.23,1.94,11.794,11.794,0,0,1-4.013.651c-2.056,0-4.366-.378-5.839-1.95-1.45-1.547-1.664-3.8-1.483-5.814l.764-8.548a2.239,2.239,0,0,1-.733.533l-15.572,8.69a12.176,12.176,0,0,0,11.6-.655,1.52,1.52,0,0,1,1.607.167,1.67,1.67,0,0,1,.686,1.631c-.049.308-.1.617-.124.928-.029.336-.055.669-.089,1l0,.015,0,.015c-.3,2.016-2.795,2.939-4.525,3.338a26.94,26.94,0,0,1-6.17.695c-3.648,0-7.347-.759-10.19-3.18a20.162,20.162,0,0,1-9.265,2.766c-1.934.074-4.242-.118-5.693-1.555-1.647-1.63-1.688-4.381-1.5-6.538l.938-10.5h-3.445l-.057-.01a1.639,1.639,0,0,1-.491-.143Zm24.125,8.063,9.943-5.674.035-.015c.822-.357.881-.787.137-1.3-2.528-1.745-5.616-.95-7.945.731a5.655,5.655,0,0,0-2.171,6.258Zm-33.519,4.975a3.223,3.223,0,0,0,1.32-2.277,2.771,2.771,0,0,0-.943-2.344,3.642,3.642,0,0,0-2.541-.952,4.131,4.131,0,0,0-2.612.91,3.22,3.22,0,0,0-1.314,2.28,2.739,2.739,0,0,0,.918,2.356,3.631,3.631,0,0,0,2.539.914,4.259,4.259,0,0,0,2.633-.888Z" transform="translate(-477.931 -494.409)" fill="#005ca3" fill-rule="evenodd"/><path d="M123.429,411.1l.035.035a.873.873,0,0,0,.31.091h4.147l-1.006,11.165c-.17,1.888-.178,4.483,1.288,5.925,1.289,1.267,3.458,1.4,5.164,1.34h.023a19.666,19.666,0,0,0,8.983-2.691l.365-.19.311.267c2.71,2.317,6.276,3.025,9.763,3.025a26.416,26.416,0,0,0,6-.67c1.577-.363,3.75-1.167,3.982-2.733.111-1.056.049-.909.219-1.954a.966.966,0,0,0-1.251-1.068c-4.6,2.6-8.65,2.4-13.49.117l16.793-9.3.02-.009a1.436,1.436,0,0,0,.637-.534l.32-.519-.225-.628a1.286,1.286,0,0,0-.088-.2,9.522,9.522,0,0,0-3.145-3.336,13.27,13.27,0,0,0-7.426-2.008A16.41,16.41,0,0,0,144.7,410.7a13.481,13.481,0,0,0-3.127,3.382l-.168.274a10.924,10.924,0,0,0-1.482,4.65,9.925,9.925,0,0,0,.538,4.474l.192.5-1.795.933-.032.013a3.554,3.554,0,0,1-3.163-.106c-1.529-.937-1.741-2.984-1.544-4.589q.487-4.234.974-8.469l.061-.534h5.075c.412-.008.5-.2.532-.6q.123-1.366.246-2.734l0-.024,0-.025c.078-.443.04-.542-.422-.555h-5.1l.061-.657.567-6.1c.029-.526-.026-.78-.6-.779l-5.836-.008h-.015l-.015,0c-.518-.026-.673.315-.766.769q-.281,3.114-.561,6.228l-.049.548h-4.036c-.355,0-.487.134-.508.488v.015l-.263,3.028,0,.015-.037.267Zm43.643.623h0L166.05,423.08c-.161,1.787,0,3.851,1.294,5.225,1.322,1.4,3.477,1.712,5.317,1.712a11.15,11.15,0,0,0,3.768-.6,9.051,9.051,0,0,0,2.994-1.786l.049-.044.054-.04a3.69,3.69,0,0,1,2.453-.759,28.9,28.9,0,0,1,5.337,1.357l.049.013.047.021a23.819,23.819,0,0,0,8,1.649,13.366,13.366,0,0,0,7.165-1.678,5.451,5.451,0,0,0,2.635-4.336,5.069,5.069,0,0,0-.478-2.763,13.8,13.8,0,0,0-3.095-3.45,9.438,9.438,0,0,1-1.493-1.6l-.006-.009-.005-.008a2.7,2.7,0,0,1-.453-1.678,2.621,2.621,0,0,1,1.377-2.047,4.889,4.889,0,0,1,2.426-.557c.565,0,1.131.027,1.694.077.6.052,1.154.035,1.2-.674l.276-2.559a.785.785,0,0,0-.759-1.029c-.348-.047-.7-.075-1.047-.1-.672-.058-1.347-.091-2.021-.091a15.486,15.486,0,0,0-7.966,1.791,5.631,5.631,0,0,0-2.933,4.488,3.865,3.865,0,0,0,.323,1.987,5.394,5.394,0,0,0,1.427,1.818c.3.236.6.478.906.721,1.1.9,2.824,2.4,2.685,3.948a2.812,2.812,0,0,1-1.382,2.156,4.75,4.75,0,0,1-2.557.656,11.155,11.155,0,0,1-3.8-.736l-.442-.155,1.343-15.345c.049-.57.01-1.028-.678-1.1h-5.594c-.569.027-.876.482-.947,1.052l-.973,10.822a5.993,5.993,0,0,1-1.413,3.633,4.649,4.649,0,0,1-3.475,1.336,3.6,3.6,0,0,1-3.139-1.4,5.939,5.939,0,0,1-.6-3.755l.968-10.759.005-.026c.126-.693-.307-.881-.942-.908h-4.692a1.551,1.551,0,0,0-1.6,1.031l-.282,3.139Zm-68.864,2.352c.164-1.809,0-3.88-1.3-5.283s-3.36-1.736-5.188-1.736a11.713,11.713,0,0,0-4.149.752,11.569,11.569,0,0,0-3.61,2.19l-1.119.994-.828-1.243a5.609,5.609,0,0,0-2.26-2.01,7.951,7.951,0,0,0-3.438-.683,9.936,9.936,0,0,0-3.661.7,10.365,10.365,0,0,0-3.186,2l-.855.785-.877-.76a8.574,8.574,0,0,0-6.346-2.333.777.777,0,0,0-.892.7L58.66,429.214a.417.417,0,0,0,.447.436H65.23a.447.447,0,0,0,.5-.443l1-11.5a6.034,6.034,0,0,1,1.38-3.59,4.439,4.439,0,0,1,3.381-1.4,3.635,3.635,0,0,1,3.159,1.382,6.133,6.133,0,0,1,.573,3.785l-.989,11.322c-.024.252.114.45.509.442h6.014a.5.5,0,0,0,.546-.446l1-11.493a6.026,6.026,0,0,1,1.38-3.591,4.442,4.442,0,0,1,3.381-1.4,3.621,3.621,0,0,1,3.157,1.38,6.058,6.058,0,0,1,.574,3.792l-.579,6.326c-.12,1.467-.071,3.352,1.176,4.375,1.68,1.378,5.191.909,9.781-1.267a5.921,5.921,0,0,0,.665.761,8.018,8.018,0,0,0,5.757,1.98,10.246,10.246,0,0,0,3.128-.465c5.978-1.917,1.8.032,9.347.032a1.016,1.016,0,0,0,1.206-1.01l1.236-13.733a11.957,11.957,0,0,0-.082-3.218l-.067-.362-.1-.324a3.66,3.66,0,0,0-1.251-1.934c-1.928-1.445-6.449-1.595-8.819-1.595-1.2,0-2.393.043-3.588.117-1.16.065-2.323.182-3.484.269-.458.034-.778.178-.892.623l-.5,1.71a.569.569,0,0,0,.624.7q.686-.048,1.374-.089c1.2-.07,2.407-.1,3.612-.1a11.817,11.817,0,0,1,4.945.76,3.264,3.264,0,0,1,1.689,3.392l-.206,1.871c-.076.575-.468.644-.928.411a8.206,8.206,0,0,0-4.606-1.422,11.69,11.69,0,0,0-7.141,2.067,7.151,7.151,0,0,0-2.54,3.341,8.173,8.173,0,0,0-.284.963,7.055,7.055,0,0,0-.176,1.95v.015c-.523.329-2.909,1.194-2.742-.63q.422-4.669.846-9.337Zm12.956,12.193a4.344,4.344,0,0,1-3.006-1.088,3.4,3.4,0,0,1-1.142-2.912,3.878,3.878,0,0,1,1.577-2.745,4.841,4.841,0,0,1,3.039-1.05,4.354,4.354,0,0,1,3.01,1.126,3.43,3.43,0,0,1,1.165,2.9,3.873,3.873,0,0,1-1.587,2.744,4.966,4.966,0,0,1-3.057,1.026Zm46.325-11.507-10.712,6.069-.183-.79c-.643-2.787-.042-5.286,2.413-7.046,2.569-1.841,5.959-2.638,8.737-.733,1.211.829,1.069,1.928-.255,2.5Z" transform="translate(-477.917 -494.395)" fill="#0086c9" fill-rule="evenodd"/></g></g></svg>